<?xml version="1.0" encoding="UTF-8" standalone="no"?>
<svg width="13px" height="9px" viewBox="0 0 13 9" version="1.1" xmlns="http://www.w3.org/2000/svg" xmlns:xlink="http://www.w3.org/1999/xlink">
    <g stroke="none" stroke-width="1" fill="none" fill-rule="evenodd">
        <g transform="translate(-700.000000, -891.000000)" fill="#ABBAC5">
            <g transform="translate(175.000000, 716.750000)">
                <g transform="translate(500.000000, 150.000000)">
                    <path d="M31.5,29.6666667 L25,25.6666667 C25,25.4855958 25.0802461,25.3292188 25.2407407,25.1975309 C25.4012354,25.065843 25.5918199,25 25.8125,25 L37.1875,25 C37.4081801,25 37.5987646,25.065843 37.7592593,25.1975309 C37.9197539,25.3292188 38,25.4855958 38,25.6666667 L31.5,29.6666667 Z M31.5,30.8641975 L38,26.8641975 L38,32.3333333 C38,32.5144042 37.9197539,32.6707812 37.7592593,32.8024691 C37.5987646,32.934157 37.4081801,33 37.1875,33 L25.8125,33 C25.5918199,33 25.4012354,32.934157 25.2407407,32.8024691 C25.0802461,32.6707812 25,32.5144042 25,32.3333333 L25,26.8641975 L31.5,30.8641975 Z" id="email"/>
                </g>
            </g>
        </g>
    </g>
</svg>