<?xml version="1.0" encoding="UTF-8"?>
<svg width="32px" height="42px" viewBox="0 0 32 42" version="1.1" xmlns="http://www.w3.org/2000/svg" xmlns:xlink="http://www.w3.org/1999/xlink">
    <!-- Generator: Sketch 39.1 (31720) - http://www.bohemiancoding.com/sketch -->
    <title>Group 3</title>
    <desc>Created with Sketch.</desc>
    <defs>
        <polygon id="path-1" points="0 42 31.7032258 42 31.7032258 0 0 0"/>
    </defs>
    <g id="Page-1" stroke="none" stroke-width="1" fill="none" fill-rule="evenodd">
        <g id="Header-Section" transform="translate(-986.000000, -502.000000)">
            <g id="Profession-Filter" transform="translate(392.000000, 501.000000)">
                <g id="Group-3" transform="translate(594.000000, 1.000000)">
                    <g id="Artists-Icon">
                        <path d="M24.3645161,36.75 L21.4290323,36.75 C21.4290323,35.3354167 20.8457516,34.6835417 20.0384935,33.781125 C19.088571,32.7191667 17.9064516,31.397625 17.9064516,28.8744167 C17.9064516,26.3509167 19.088571,25.029375 20.0384935,23.9677083 C20.8457516,23.0652917 21.4290323,22.413125 21.4290323,20.9988333 C21.4290323,19.5845417 20.8457516,18.9326667 20.0384935,18.03025 C19.088571,16.9685833 17.9064516,15.6473333 17.9064516,13.124125 C17.9064516,10.6012083 19.088571,9.27966667 20.0384935,8.21829167 C20.8457516,7.315875 21.4290323,6.664 21.4290323,5.25 L24.3645161,5.25 C24.3645161,7.77291667 23.1823968,9.09445833 22.2324742,10.1558333 C21.4252161,11.05825 20.8419355,11.710125 20.8419355,13.124125 C20.8419355,14.5384167 21.4252161,15.1902917 22.2324742,16.0927083 C23.1823968,17.154375 24.3645161,18.475625 24.3645161,20.9988333 C24.3645161,23.5220417 23.1823968,24.8435833 22.2324742,25.90525 C21.4252161,26.8079583 20.8419355,27.4598333 20.8419355,28.8744167 C20.8419355,30.289 21.4252161,30.940875 22.2324742,31.8432917 C23.1823968,32.90525 24.3645161,34.2267917 24.3645161,36.75 L24.3645161,36.75 Z" id="Fill-1" fill="#D6D6D6"/>
                        <path d="M10.5677419,10.5 C7.64957742,10.5 5.28387097,12.8505417 5.28387097,15.75 C5.28387097,18.6494583 7.64957742,21 10.5677419,21 C13.4859065,21 15.8516129,18.6494583 15.8516129,15.75 C15.8516129,12.8505417 13.4859065,10.5 10.5677419,10.5 M10.5677419,13.4166667 C11.8625839,13.4166667 12.916129,14.4634583 12.916129,15.75 C12.916129,17.0365417 11.8625839,18.0833333 10.5677419,18.0833333 C9.2729,18.0833333 8.21935484,17.0365417 8.21935484,15.75 C8.21935484,14.4634583 9.2729,13.4166667 10.5677419,13.4166667" id="Fill-3" fill="#D6D6D6"/>
                        <mask id="mask-2" fill="white">
                            <use xlink:href="#path-1"/>
                        </mask>
                        <g id="Clip-6"/>
                        <polygon id="Fill-5" fill="#D6D6D6" mask="url(#mask-2)" points="5.28387097 30.3333333 15.8516129 30.3333333 15.8516129 27.4166667 5.28387097 27.4166667"/>
                        <path d="M0,42 L31.7032258,42 L31.7032258,0 L0,0 L0,42 Z M2.93548387,39.0833333 L28.7677419,39.0833333 L28.7677419,2.91666667 L2.93548387,2.91666667 L2.93548387,39.0833333 Z" id="Fill-7" fill="#D6D6D6" mask="url(#mask-2)"/>
                    </g>
                </g>
            </g>
        </g>
    </g>
</svg>