<?xml version="1.0" encoding="UTF-8"?>
<svg width="49px" height="36px" viewBox="0 0 49 36" version="1.1" xmlns="http://www.w3.org/2000/svg" xmlns:xlink="http://www.w3.org/1999/xlink">
    <!-- Generator: Sketch 39.1 (31720) - http://www.bohemiancoding.com/sketch -->
    <title>Group 5</title>
    <desc>Created with Sketch.</desc>
    <defs/>
    <g id="Page-1" stroke="none" stroke-width="1" fill="none" fill-rule="evenodd">
        <g id="Header-Section" transform="translate(-632.000000, -490.000000)" fill="#D6D6D6">
            <g id="Profession-Filter" transform="translate(505.000000, 484.000000)">
                <g id="Group-5" transform="translate(127.000000, 6.000000)">
                    <g id="Photographers-Icon">
                        <path d="M0,36 L48.637037,36 L48.637037,0 L0,0 L0,36 Z M3.37757202,32.6666667 L45.259465,32.6666667 L45.259465,3.33333333 L3.37757202,3.33333333 L3.37757202,32.6666667 Z" id="Fill-1"/>
                        <path d="M24.3185185,6 C17.6032298,6 12.1592593,11.3726667 12.1592593,18 C12.1592593,24.6273333 17.6032298,30 24.3185185,30 C31.0338072,30 36.4777778,24.6273333 36.4777778,18 C36.4777778,11.3726667 31.0338072,6 24.3185185,6 M24.3185185,9.33333333 C29.1606058,9.33333333 33.1002058,13.2213333 33.1002058,18 C33.1002058,22.7786667 29.1606058,26.6666667 24.3185185,26.6666667 C19.4764313,26.6666667 15.5368313,22.7786667 15.5368313,18 C15.5368313,13.2213333 19.4764313,9.33333333 24.3185185,9.33333333" id="Fill-2"/>
                    </g>
                </g>
            </g>
        </g>
    </g>
</svg>